HIERARCHY
ROOT Hips
{
	OFFSET 0.00000 0.00000 0.00000
	CHANNELS 6 Xposition Yposition Zposition Zrotation Yrotation Xrotation 
	JOINT LHipJoint
	{
		OFFSET 0 0 0
		CHANNELS 3 Zrotation Yrotation Xrotation
		JOINT LeftUpLeg
		{
			OFFSET 1.57338 -1.94743 0.52196
			CHANNELS 3 Zrotation Yrotation Xrotation
			JOINT LeftLeg
			{
				OFFSET 2.60333 -7.15259 0.00000
				CHANNELS 3 Zrotation Yrotation Xrotation
				JOINT LeftFoot
				{
					OFFSET 2.77855 -7.63400 0.00000
					CHANNELS 3 Zrotation Yrotation Xrotation
					JOINT LeftToeBase
					{
						OFFSET 0.19847 -0.54529 2.28466
						CHANNELS 3 Zrotation Yrotation Xrotation
						End Site
						{
							OFFSET 0.00000 -0.00000 1.17993
						}
					}
				}
			}
		}
	}
	JOINT RHipJoint
	{
		OFFSET 0 0 0
		CHANNELS 3 Zrotation Yrotation Xrotation
		JOINT RightUpLeg
		{
			OFFSET -1.61527 -1.94743 0.52196
			CHANNELS 3 Zrotation Yrotation Xrotation
			JOINT RightLeg
			{
				OFFSET -2.53829 -6.97390 0.00000
				CHANNELS 3 Zrotation Yrotation Xrotation
				JOINT RightFoot
				{
					OFFSET -2.80762 -7.71387 0.00000
					CHANNELS 3 Zrotation Yrotation Xrotation
					JOINT RightToeBase
					{
						OFFSET -0.30536 -0.83898 2.28801
						CHANNELS 3 Zrotation Yrotation Xrotation
						End Site
						{
							OFFSET -0.00000 -0.00000 1.21323
						}
					}
				}
			}
		}
	}
	JOINT LowerBack
	{
		OFFSET 0 0 0
		CHANNELS 3 Zrotation Yrotation Xrotation
		JOINT Spine
		{
			OFFSET -0.04381 1.99497 -0.19778
			CHANNELS 3 Zrotation Yrotation Xrotation
			JOINT Spine1
			{
				OFFSET -0.01959 2.01295 -0.04372
				CHANNELS 3 Zrotation Yrotation Xrotation
				JOINT Neck
				{
					OFFSET 0 0 0
					CHANNELS 3 Zrotation Yrotation Xrotation
					JOINT Neck1
					{
						OFFSET -0.05459 1.76913 0.09708
						CHANNELS 3 Zrotation Yrotation Xrotation
						JOINT Head
						{
							OFFSET 0.09461 1.77368 -0.11172
							CHANNELS 3 Zrotation Yrotation Xrotation
							End Site
							{
								OFFSET 0.03812 1.78157 -0.04834
							}
						}
					}
				}
				JOINT LeftShoulder
				{
					OFFSET 0 0 0
					CHANNELS 3 Zrotation Yrotation Xrotation
					JOINT LeftArm
					{
						OFFSET 3.50922 1.24034 -0.28866
						CHANNELS 3 Zrotation Yrotation Xrotation
						JOINT LeftForeArm
						{
							OFFSET 5.40188 -0.00000 0.00000
							CHANNELS 3 Zrotation Yrotation Xrotation
							JOINT LeftHand
							{
								OFFSET 3.68559 -0.00000 0.00000
								CHANNELS 3 Zrotation Yrotation Xrotation
								JOINT LeftFingerBase
								{
									OFFSET 0 0 0
									CHANNELS 3 Zrotation Yrotation Xrotation
									JOINT LeftHandIndex1
									{
										OFFSET 0.61753 -0.00000 0.00000
										CHANNELS 3 Zrotation Yrotation Xrotation
										End Site
										{
											OFFSET 0.49787 -0.00000 0.00000
										}
									}
								}
								JOINT LThumb
								{
									OFFSET 0 0 0
									CHANNELS 3 Zrotation Yrotation Xrotation
									End Site
									{
										OFFSET 0.50547 -0.00000 0.50547
									}
								}
							}
						}
					}
				}
				JOINT RightShoulder
				{
					OFFSET 0 0 0
					CHANNELS 3 Zrotation Yrotation Xrotation
					JOINT RightArm
					{
						OFFSET -2.95373 1.39649 -0.27346
						CHANNELS 3 Zrotation Yrotation Xrotation
						JOINT RightForeArm
						{
							OFFSET -6.10670 -0.00000 -0.00000
							CHANNELS 3 Zrotation Yrotation Xrotation
							JOINT RightHand
							{
								OFFSET -3.63052 -0.00000 0.00000
								CHANNELS 3 Zrotation Yrotation Xrotation
								JOINT RightFingerBase
								{
									OFFSET 0 0 0
									CHANNELS 3 Zrotation Yrotation Xrotation
									JOINT RightHandIndex1
									{
										OFFSET -0.58385 -0.00000 0.00000
										CHANNELS 3 Zrotation Yrotation Xrotation
										End Site
										{
											OFFSET -0.47071 -0.00000 0.00000
										}
									}
								}
								JOINT RThumb
								{
									OFFSET 0 0 0
									CHANNELS 3 Zrotation Yrotation Xrotation
									End Site
									{
										OFFSET -0.47790 -0.00000 0.47790
									}
								}
							}
						}
					}
				}
			}
		}
	}
}
MOTION
Frames: 13
Frame Time: 0.0333333
7.6355 18.7436 8.0529 0 0 0 0 0 0 -21 0 0 0 0 0 0 0 0 0 0 0 0 0 0 21 0 0 0 0 0 0 0 0 0 0 0 0 0 0 0 0 0 0 0 0 0 0 -16 0 0 21 0 0 11 0 0 0 -8 0 0 0 0 0 0 0 0 0 0 0 0 0 0 0 0 0 0 0 0 8 0 0 0 0 0 0 0 0 0 0 0 0 0 0 0 0 0
4.7555 18.7931 4.9133 177.5180 -47.5402 -178.8710 0.0000 0.0000 0.0000 -10.2790 -1.0144 -51.7327 23.5265 19.6992 100.3608 0.3174 -5.5096 -10.1607 0.5438 -4.7245 -13.1245 0.0000 0.0000 0.0000 26.0257 23.4634 -0.2364 -1.5934 -7.9622 22.5992 -0.3286 3.5537 -10.1908 -0.2850 -3.4331 9.4869 0.8964 -0.0726 11.1017 0.5422 -0.1064 2.3726 0.0775 -0.1179 -3.7463 -7.1372 -5.4979 -9.5534 9.9218 -9.3938 21.0475 3.4949 -4.3244 8.9490 0.0000 -0.0000 0.0000 -79.7778 -11.4044 23.5789 22.8720 -33.9485 -7.0667 -0.0000 0.0000 -19.9498 21.0209 23.6029 8.7472 -7.1250 0.0000 -0.0000 -8.7588 54.8506 -2.1313 0.0000 -0.0000 0.0000 58.5549 32.5174 -11.1900 -96.1403 59.8571 -65.3151 0.0000 0.0000 12.4201 -35.0882 -8.5280 5.9474 7.1250 -0.0000 -0.0000 -7.2259 -40.2615 -0.8492
4.6822 18.8245 4.8665 176.6970 -45.0364 -178.5100 0.0000 0.0000 0.0000 -11.2903 -1.4281 -56.4440 24.3753 19.5347 102.8885 0.3574 -7.7256 -11.1770 0.5383 -4.7011 -13.0579 0.0000 0.0000 0.0000 25.6379 24.1200 0.7718 -1.5339 -7.8190 22.1657 -0.2777 4.3974 -9.4113 -0.3566 -3.8364 10.6169 0.7720 0.2871 11.5456 0.3876 0.3359 2.5429 -0.0763 0.0945 -3.8106 -6.9216 -5.1499 -9.3284 9.8829 -8.8973 20.6997 3.5090 -4.0901 8.7272 0.0000 -0.0000 0.0000 -78.8143 -13.6167 25.2403 24.1720 -35.3456 -7.8058 -0.0000 0.0000 -21.2127 21.3568 23.7066 8.9346 -7.1250 0.0000 -0.0000 -8.4526 55.0240 -2.0917 0.0000 -0.0000 0.0000 60.0837 33.7000 -9.1192 -97.0202 59.8130 -66.0758 0.0000 0.0000 14.9329 -36.1730 -7.6426 5.5540 7.1250 -0.0000 -0.0000 -8.1431 -39.2930 -1.1541
4.5920 18.8731 4.8155 176.2290 -42.6522 -178.3400 0.0000 0.0000 0.0000 -12.2418 -1.7692 -60.5622 24.9009 19.4141 104.4648 0.3432 -10.5579 -11.9476 0.0850 -1.8811 -5.1771 0.0000 0.0000 0.0000 25.3588 24.5733 1.5652 -1.4908 -7.7135 21.8471 -0.2198 4.9371 -8.5090 -0.7391 -5.4922 15.3178 0.7618 0.5571 11.6991 0.4427 0.6761 2.7502 -0.0628 0.2559 -3.6771 -6.7808 -4.7689 -9.5753 9.4729 -8.2726 20.7851 3.4145 -3.8109 8.7174 0.0000 -0.0000 0.0000 -77.8287 -16.1637 27.0049 25.4654 -36.6759 -8.5663 -0.0000 0.0000 -22.7945 22.7764 26.1653 10.4895 -7.1250 0.0000 -0.0000 -8.0098 57.8517 -2.5303 0.0000 -0.0000 0.0000 61.3599 34.8395 -7.0682 -97.6306 59.7788 -66.6034 0.0000 0.0000 16.1430 -36.3286 -8.7573 6.3880 7.1250 -0.0000 -0.0000 -8.3428 -40.6647 -0.8990
4.5064 18.9211 4.7519 175.5620 -40.8533 -178.2060 0.0000 0.0000 0.0000 -14.0323 -2.2050 -64.0650 24.9570 19.4004 104.6339 0.4509 -11.4382 -13.4480 0.3048 -3.5497 -9.8130 0.0000 0.0000 0.0000 25.1210 24.7607 2.6590 -1.4310 -7.5638 21.3968 -0.1988 4.8139 -8.1129 -0.7961 -5.6952 15.9025 0.3173 0.5345 11.9135 0.5081 0.5720 2.9993 0.2710 0.1982 -3.5411 -6.3510 -4.3621 -9.6773 8.7760 -7.5746 20.6487 3.1829 -3.5061 8.5807 -0.0000 0.0000 0.0000 -76.6333 -18.8276 27.1643 26.1179 -37.3249 -8.9591 -0.0000 0.0000 -23.5755 22.9718 24.7676 10.0699 -7.1250 0.0000 -0.0000 -7.1862 56.4518 -2.0251 -0.0000 0.0000 0.0000 62.3798 35.9160 -4.7345 -97.7123 59.7741 -66.6740 0.0000 0.0000 16.3911 -36.4380 -9.3114 6.8120 7.1250 -0.0000 -0.0000 -8.4703 -41.3503 -0.7687
4.4186 18.9481 4.7179 175.0450 -38.9119 -178.1610 0.0000 0.0000 0.0000 -15.4252 -2.9292 -66.8669 24.8443 19.4278 104.2947 0.3181 -14.0247 -13.2588 0.2715 -3.3516 -9.2592 0.0000 0.0000 0.0000 24.6625 24.6229 3.0237 -1.4427 -7.5933 21.4854 -0.1536 5.6641 -7.4899 -0.6865 -5.2973 14.7585 0.5919 0.5677 12.4243 0.2899 0.6186 3.1808 -0.1203 0.2090 -3.6255 -5.8808 -4.0638 -9.8697 8.3652 -7.0942 20.4292 3.0143 -3.2721 8.4690 -0.0000 0.0000 0.0000 -74.8143 -21.6214 27.9665 27.2293 -38.3970 -9.6412 -0.0000 0.0000 -25.4889 19.0188 22.9599 7.6581 -7.1250 0.0000 -0.0000 -10.5446 53.8094 -2.3036 -0.0000 0.0000 0.0000 63.6104 37.1057 -2.6315 -96.6541 59.8320 -65.7594 0.0000 0.0000 17.4725 -35.9618 -10.2573 7.3615 7.1250 -0.0000 -0.0000 -8.0793 -42.4409 -0.5138
4.3211 18.9895 4.6645 174.5890 -36.9476 -178.1560 0.0000 0.0000 0.0000 -16.9299 -3.4520 -68.9865 24.4018 19.5290 102.9679 0.2003 -15.9781 -13.2041 0.4414 -4.2628 -11.8172 0.0000 0.0000 0.0000 24.1582 24.4919 3.5493 -1.4171 -7.5285 21.2909 -0.0820 6.6554 -6.4923 -0.6802 -5.2735 14.6902 0.4974 0.6319 12.9225 0.2726 0.6806 3.1959 -0.0982 0.2335 -3.8827 -6.2437 -3.6936 -9.8706 8.6880 -6.5863 20.4078 3.2418 -3.0347 8.4426 -0.0000 0.0000 0.0000 -73.1970 -24.1742 28.2710 28.2114 -39.3101 -10.2573 -0.0000 0.0000 -25.8096 20.7345 24.1595 8.8071 -7.1250 0.0000 -0.0000 -9.2876 55.3631 -2.3777 -0.0000 0.0000 0.0000 64.1140 37.7278 -0.6148 -95.2758 59.8946 -64.5674 0.0000 0.0000 17.4119 -38.6476 -11.7314 9.2348 7.1250 -0.0000 -0.0000 -10.6721 -44.6021 -0.1061
4.2265 19.0308 4.6215 173.5420 -35.1904 -177.7650 0.0000 0.0000 0.0000 -18.9383 -4.1421 -70.0638 23.6753 19.6730 100.8025 0.0088 -17.8469 -12.6296 0.4788 -4.4376 -12.3113 0.0000 0.0000 0.0000 23.0038 24.4837 3.7467 -1.4421 -7.5918 21.4810 -0.0117 7.7154 -5.6560 -0.6960 -5.3331 14.8611 0.0716 0.6588 13.4150 -0.0729 0.6222 3.3156 -0.2122 0.1977 -4.0276 -6.1436 -3.5464 -10.0261 8.7664 -6.3730 20.1629 3.2708 -2.9137 8.3705 -0.0000 0.0000 0.0000 -70.9686 -27.1659 28.8960 29.4850 -40.4479 -11.0740 -0.0000 0.0000 -27.2287 23.1277 25.4509 10.4005 -7.1250 0.0000 -0.0000 -7.3084 57.1928 -2.1908 -0.0000 0.0000 0.0000 64.7847 38.2407 1.1774 -95.7868 59.8731 -65.0094 0.0000 0.0000 17.4728 -38.0577 -11.2789 8.7058 7.1250 -0.0000 -0.0000 -10.0808 -43.9596 -0.2616
4.1288 19.0654 4.5652 173.8120 -33.5913 -178.2610 0.0000 0.0000 0.0000 -19.4448 -4.3791 -70.3968 22.9567 19.7891 98.6742 -0.0909 -18.3430 -12.0602 0.2852 -3.4348 -9.4916 0.0000 0.0000 0.0000 23.1993 24.3962 4.3414 -1.4195 -7.5347 21.3093 0.0521 8.1981 -4.6104 -0.7432 -5.5072 15.3609 0.2579 0.6123 13.6341 0.1670 0.5723 3.5055 -0.0586 0.1615 -3.9482 -6.2187 -3.4450 -9.7965 8.3892 -6.1094 19.9013 3.1862 -2.8334 8.2087 0.0000 -0.0000 0.0000 -69.1777 -30.1864 28.7979 30.5708 -41.3777 -11.7852 -0.0000 0.0000 -27.7672 23.3023 25.9922 10.6894 -7.1250 0.0000 -0.0000 -7.3582 57.7906 -2.3121 0.0000 -0.0000 0.0000 64.8457 38.4159 2.7301 -96.6363 59.8329 -65.7440 0.0000 0.0000 17.9196 -35.7665 -10.8602 7.7290 7.1250 -0.0000 -0.0000 -7.9202 -43.1431 -0.3654
4.0207 19.0891 4.4974 173.5570 -31.9845 -178.1900 0.0000 0.0000 0.0000 -20.3715 -4.6377 -69.8847 22.1433 19.8895 96.2777 -0.0565 -17.5875 -11.8233 0.0691 -1.6962 -4.6669 0.0000 0.0000 0.0000 22.8342 24.4519 4.5518 -1.4447 -7.5983 21.5005 0.1027 8.9301 -4.0933 -0.5972 -4.9471 13.7578 0.2354 0.5045 13.6016 0.0432 0.4169 3.4995 -0.1490 0.0832 -3.9364 -6.2262 -3.1723 -9.8776 8.3807 -5.7607 20.1154 3.2223 -2.6748 8.2655 0.0000 0.0000 0.0000 -66.9522 -33.0823 28.2471 31.1329 -41.8449 -12.1584 -0.0000 0.0000 -27.6338 24.6508 25.9208 11.3431 -7.1250 0.0000 -0.0000 -5.8492 58.0202 -1.8678 0.0000 0.0000 0.0000 65.3478 38.2928 3.7628 -96.7085 59.8293 -65.8064 0.0000 0.0000 18.0757 -33.3190 -8.8923 5.8020 7.1250 -0.0000 -0.0000 -5.6601 -40.5212 -0.6274
3.9129 19.0879 4.4094 173.9760 -30.3976 -178.7460 0.0000 0.0000 0.0000 -20.4144 -4.4828 -68.6495 21.3782 19.9544 94.0327 -0.1646 -17.1882 -10.4187 0.0604 -1.5856 -4.3618 0.0000 0.0000 0.0000 23.2455 24.4776 5.4601 -1.4215 -7.5398 21.3249 0.1610 9.5280 -3.3033 -0.6856 -5.2939 14.7488 0.4730 0.4561 13.6633 0.2104 0.3778 3.5936 -0.1015 0.0561 -3.8705 -6.1477 -2.9604 -9.9651 7.9834 -5.4262 20.3940 3.1115 -2.5500 8.3341 0.0000 -0.0000 0.0000 -64.9547 -36.0198 27.4031 31.8849 -42.4552 -12.6630 -0.0000 0.0000 -26.6923 19.8266 25.2820 8.7537 -7.1250 0.0000 -0.0000 -10.7414 56.3164 -3.0052 0.0000 -0.0000 0.0000 65.4136 38.0740 5.1215 -94.8077 59.9125 -64.1624 0.0000 0.0000 18.3856 -32.3053 -9.6187 6.0310 7.1250 -0.0000 -0.0000 -4.7533 -41.2715 -0.4382
3.7974 19.1112 4.3326 174.1040 -28.9704 -178.7290 0.0000 0.0000 0.0000 -20.5826 -4.8369 -67.2029 20.7124 19.9878 92.0832 -0.3298 -16.3006 -7.7054 0.2532 3.2377 8.9412 0.0000 0.0000 0.0000 22.9479 24.2643 5.5909 -1.3823 -7.4394 21.0239 0.2585 10.5668 -2.0909 -0.6777 -5.2640 14.6630 0.5334 0.3355 13.4593 0.2898 0.2269 3.5969 -0.0272 -0.0192 -3.7568 -6.0827 -2.7713 -10.2075 7.7000 -5.0654 20.2630 3.0401 -2.3887 8.2975 0.0000 -0.0000 0.0000 -63.0370 -38.6168 27.1133 33.5824 -43.7730 -13.8234 -0.0000 0.0000 -28.3352 17.3543 23.9923 7.2417 -7.1250 0.0000 -0.0000 -12.6829 54.5298 -3.0059 0.0000 -0.0000 0.0000 65.1514 37.7895 7.6723 -93.0630 59.9645 -62.6523 0.0000 0.0000 16.1686 -33.8274 -10.8393 7.1826 7.1250 -0.0000 -0.0000 -6.1304 -42.8766 -0.3225
3.6959 19.1173 4.2566 174.3880 -27.4360 -178.6190 0.0000 0.0000 0.0000 -20.6293 -4.8413 -66.4794 20.7404 19.9869 92.1652 0.1219 -14.6060 -11.5922 0.2053 2.9174 8.0488 0.0000 0.0000 0.0000 22.8692 24.6538 5.3782 -1.4132 -7.5187 21.2613 0.3514 11.6629 -1.2748 -0.5868 -4.9048 13.6372 0.3250 0.2747 13.2502 0.4136 0.1191 3.6159 0.2375 -0.0729 -3.6249 -5.7530 -2.5771 -10.4351 7.5050 -4.7038 19.6602 2.9508 -2.1913 8.0986 0.0000 0.0000 0.0000 -60.9696 -41.3628 25.9175 35.2241 -44.9715 -14.9715 -0.0000 0.0000 -28.9614 17.1532 24.1282 7.1912 -7.1250 0.0000 -0.0000 -12.9503 54.6263 -3.1016 0.0000 0.0000 0.0000 64.9234 38.0173 9.5989 -93.4559 59.9548 -62.9924 0.0000 0.0000 15.1445 -34.3475 -9.9163 6.7119 7.1250 -0.0000 -0.0000 -6.5974 -41.8434 -0.5162
